<svg xmlns="http://www.w3.org/2000/svg" viewBox="0 0 400 410"><defs><linearGradient id="f" x2=".8" y2="1"><stop stop-color="#f6f1df"/><stop offset="1" stop-color="#b3bba6"/></linearGradient></defs><circle cx="200" cy="202" r="172" fill="none" stroke="#7f8b70" stroke-width=".6"/><circle cx="200" cy="202" r="145" fill="none" stroke="#7f8b70" stroke-width=".4" stroke-dasharray="3 7"/><path d="M72 38 149 111 200 95 250 111 328 38 315 208 269 294 200 365 130 294 85 208Z" fill="url(#f)"/><path d="M72 38 130 156 85 208Z" fill="#e2ddc9"/><path d="M328 38 270 156 315 208Z" fill="#8d9a80"/><path d="m86 66 61 65-39 15Z" fill="#b63221"/><path d="m314 66-61 65 39 15Z" fill="#b63221"/><path d="m101 177 77 28-20 26-52-31Z" fill="#242e24"/><path d="m299 177-77 28 20 26 52-31Z" fill="#242e24"/><path d="m105 180 70 28-37 0Z" fill="#c7442c"/><path d="m295 180-70 28 37 0Z" fill="#c7442c"/><path d="m200 96-19 69 19 35 19-35Z" fill="#c7442c"/><path d="m200 212-24 77 24 45 24-45Z" fill="#c9ccb9"/><path d="m178 291 22 11 22-11-22 37Z" fill="#2d352a"/><path d="m112 239 38 13 12 22-42-16Z" fill="#c7442c"/><path d="m288 239-38 13-12 22 42-16Z" fill="#c7442c"/><path d="m124 271 36 11 10 20-33-12Z" fill="#c7442c"/><path d="m276 271-36 11-10 20 33-12Z" fill="#c7442c"/><path d="m180 336 20 7 20-7" fill="none" stroke="#46513c" stroke-width="3"/><path d="M200 110v22M190 121h20" stroke="#f7ecda" stroke-width="2"/></svg>
